<svg xmlns="http://www.w3.org/2000/svg" width="24" height="24" viewBox="0 0 6.35 6.35"><path d="m 1.3224762,291.17916 c -0.43519777,0 -0.79330952,0.35811 -0.79330952,0.79333 v 3.70503 c 0,0.43521 0.35810574,0.79331 0.79330952,0.79331 h 3.7055567 c 0.4352039,0 0.7927928,-0.3581 0.7927928,-0.79331 v -3.17583 c 5.339e-4,-0.0701 -0.026791,-0.1376 -0.075972,-0.1876 l -1.0589522,-1.05895 c -0.032973,-0.0322 -0.073767,-0.0551 -0.1183502,-0.0667 z m 0,0.52923 h 0.2656425 v 1.32253 c 5.849e-4,0.14532 0.1182507,0.26299 0.2635751,0.26357 h 2.6466047 c 0.1453245,-5.8e-4 0.2629904,-0.11825 0.2635753,-0.26357 v -0.94991 l 0.5297343,0.52974 v 3.06677 c 0,0.15117 -0.1124058,0.2641 -0.2635752,0.2641 H 1.3224762 c -0.1511693,0 -0.2635751,-0.11293 -0.2635751,-0.2641 v -3.70503 c 0,-0.15119 0.1123998,-0.2641 0.2635751,-0.2641 z m 0.79486,0 h 2.11532 v 1.05895 h -2.11532 z m -0.2656424,2.11583 c -0.1461321,5.8e-4 -0.2641301,0.11951 -0.2635751,0.26564 v 1.05844 c 5.795e-4,0.14533 0.1182468,0.26299 0.2635751,0.26357 h 2.6466047 c 0.1453284,-5.8e-4 0.2629958,-0.11824 0.2635753,-0.26357 v -1.05844 c 5.55e-4,-0.14613 -0.1174431,-0.26506 -0.2635753,-0.26564 z m 0.2656424,0.52922 h 2.11532 v 0.52923 h -2.11532 z" color="#000" font-family="sans-serif" font-weight="400" overflow="visible" transform="translate(0 -290.65)" white-space="normal" style="line-height:normal;font-variant-ligatures:normal;font-variant-position:normal;font-variant-caps:normal;font-variant-numeric:normal;font-variant-alternates:normal;font-feature-settings:normal;text-indent:0;text-align:start;text-decoration-line:none;text-decoration-style:solid;text-decoration-color:#000;text-transform:none;text-orientation:mixed;shape-padding:0;isolation:auto;mix-blend-mode:normal"/></svg>